# Blender 4.1.1
# www.blender.org
mtllib EnemyBody.mtl
o Cube.001
v -0.375000 0.750000 0.375000
v -0.375000 0.000000 0.375000
v -0.375000 0.750000 -0.375000
v -0.375000 -0.000000 -0.375000
v 0.375000 0.750000 0.375000
v 0.375000 0.000000 0.375000
v 0.375000 0.750000 -0.375000
v 0.375000 -0.000000 -0.375000
vn -0.0000 1.0000 -0.0000
vn -0.0000 -0.0000 -1.0000
vn 1.0000 -0.0000 -0.0000
vn -0.0000 -1.0000 -0.0000
vn -1.0000 -0.0000 -0.0000
vn -0.0000 -0.0000 1.0000
vt 0.500506 0.875000
vt 0.250170 0.625336
vt 0.500169 0.625000
vt -0.000166 0.375673
vt 0.249833 0.375336
vt 1.000169 0.624327
vt 0.749833 0.374664
vt 0.999833 0.374328
vt 0.499833 0.375000
vt 0.249497 0.125337
vt 0.499497 0.125000
vt 0.750169 0.624664
vt 0.250506 0.875336
vt 0.000170 0.625672
s 0
usemtl Material.002
f 5/1/1 3/2/1 1/3/1
f 3/2/2 8/4/2 4/5/2
f 7/6/3 6/7/3 8/8/3
f 2/9/4 8/10/4 6/11/4
f 1/3/5 4/5/5 2/9/5
f 5/12/6 2/9/6 6/7/6
f 5/1/1 7/13/1 3/2/1
f 3/2/2 7/14/2 8/4/2
f 7/6/3 5/12/3 6/7/3
f 2/9/4 4/5/4 8/10/4
f 1/3/5 3/2/5 4/5/5
f 5/12/6 1/3/6 2/9/6
