# Blender 4.1.1
# www.blender.org
mtllib player.mtl
o Cube
v -1.000000 2.000000 1.000000
v -1.000000 -0.000000 1.000000
v -1.000000 2.000000 -1.000000
v -1.000000 0.000000 -1.000000
v 1.000000 2.000000 1.000000
v 1.000000 -0.000000 1.000000
v 1.000000 2.000000 -1.000000
v 1.000000 0.000000 -1.000000
vn -0.0000 1.0000 -0.0000
vn -0.0000 -0.0000 -1.0000
vn 1.0000 -0.0000 -0.0000
vn -0.0000 -1.0000 -0.0000
vn -1.0000 -0.0000 -0.0000
vn -0.0000 -0.0000 1.0000
vt 0.499800 0.875000
vt 0.249933 0.624866
vt 0.499933 0.625000
vt 0.000067 0.374733
vt 0.250067 0.374866
vt 0.999933 0.625267
vt 0.750067 0.375134
vt 1.000067 0.375267
vt 0.500067 0.375000
vt 0.250200 0.124866
vt 0.500200 0.125000
vt 0.749933 0.625134
vt 0.249800 0.874866
vt -0.000067 0.624733
s 0
usemtl Material.001
f 5/1/1 3/2/1 1/3/1
f 3/2/2 8/4/2 4/5/2
f 7/6/3 6/7/3 8/8/3
f 2/9/4 8/10/4 6/11/4
f 1/3/5 4/5/5 2/9/5
f 5/12/6 2/9/6 6/7/6
f 5/1/1 7/13/1 3/2/1
f 3/2/2 7/14/2 8/4/2
f 7/6/3 5/12/3 6/7/3
f 2/9/4 4/5/4 8/10/4
f 1/3/5 3/2/5 4/5/5
f 5/12/6 1/3/6 2/9/6
