# Blender 4.1.1
# www.blender.org
mtllib shadow.mtl
o çƒ
v 0.000000 -0.000000 -1.000000
v 0.000000 -0.000003 0.000000
v 0.195090 -0.000000 -0.980785
v 0.382683 -0.000000 -0.923879
v 0.555570 -0.000000 -0.831469
v 0.707107 -0.000000 -0.707107
v 0.831470 -0.000000 -0.555570
v 0.923879 -0.000000 -0.382683
v 0.980785 -0.000000 -0.195090
v 1.000000 0.000000 0.000000
v 0.980785 0.000000 0.195090
v 0.923879 0.000000 0.382683
v 0.831469 0.000000 0.555570
v 0.707106 0.000000 0.707107
v 0.555570 0.000000 0.831469
v 0.382683 0.000000 0.923879
v 0.195090 0.000000 0.980785
v 0.000000 0.000000 0.999999
v -0.195091 0.000000 0.980785
v -0.382683 0.000000 0.923879
v -0.555570 0.000000 0.831469
v -0.707106 0.000000 0.707106
v -0.831469 0.000000 0.555569
v -0.923879 0.000000 0.382683
v -0.980784 0.000000 0.195090
v -0.999999 0.000000 0.000000
v -0.980784 -0.000000 -0.195091
v -0.923878 -0.000000 -0.382683
v -0.831468 -0.000000 -0.555570
v -0.707106 -0.000000 -0.707106
v -0.555569 -0.000000 -0.831469
v -0.382683 -0.000000 -0.923879
v -0.195090 -0.000000 -0.980784
vn -0.0000 -1.0000 -0.0000
vn -0.0000 1.0000 -0.0000
vt 0.750000 0.437500
vt 0.750000 0.500000
vt 0.718750 0.500000
vt 0.718750 0.437500
vt 0.687500 0.500000
vt 0.687500 0.437500
vt 0.656250 0.500000
vt 0.656250 0.437500
vt 0.625000 0.500000
vt 0.625000 0.437500
vt 0.593750 0.500000
vt 0.593750 0.437500
vt 0.562500 0.500000
vt 0.562500 0.437500
vt 0.531250 0.500000
vt 0.531250 0.437500
vt 0.500000 0.500000
vt 0.500000 0.437500
vt 0.468750 0.500000
vt 0.468750 0.437500
vt 0.437500 0.500000
vt 0.437500 0.437500
vt 0.406250 0.500000
vt 0.406250 0.437500
vt 0.375000 0.500000
vt 0.375000 0.437500
vt 0.343750 0.500000
vt 0.343750 0.437500
vt 0.312500 0.500000
vt 0.312500 0.437500
vt 0.281250 0.500000
vt 0.281250 0.437500
vt 0.250000 0.500000
vt 0.250000 0.437500
vt 0.218750 0.500000
vt 0.218750 0.437500
vt 0.187500 0.500000
vt 0.187500 0.437500
vt 0.156250 0.500000
vt 0.156250 0.437500
vt 0.125000 0.500000
vt 0.125000 0.437500
vt 0.093750 0.500000
vt 0.093750 0.437500
vt 0.062500 0.500000
vt 0.062500 0.437500
vt 0.031250 0.500000
vt 0.031250 0.437500
vt 0.000000 0.500000
vt 1.000000 0.437500
vt 1.000000 0.500000
vt 0.968750 0.500000
vt 0.968750 0.437500
vt 0.937500 0.500000
vt 0.937500 0.437500
vt 0.906250 0.500000
vt 0.906250 0.437500
vt 0.875000 0.500000
vt 0.875000 0.437500
vt 0.843750 0.500000
vt 0.843750 0.437500
vt 0.812500 0.500000
vt 0.812500 0.437500
vt 0.781250 0.500000
vt 0.781250 0.437500
s 0
f 2/1/1 1/2/1 3/3/1
f 2/4/1 3/3/1 4/5/1
f 2/6/1 4/5/1 5/7/1
f 2/8/1 5/7/1 6/9/1
f 2/10/1 6/9/1 7/11/1
f 2/12/1 7/11/1 8/13/1
f 2/14/1 8/13/1 9/15/1
f 2/16/1 9/15/1 10/17/1
f 2/18/1 10/17/1 11/19/1
f 2/20/1 11/19/1 12/21/1
f 2/22/1 12/21/1 13/23/1
f 2/24/1 13/23/1 14/25/1
f 2/26/1 14/25/1 15/27/1
f 2/28/1 15/27/1 16/29/1
f 2/30/1 16/29/1 17/31/1
f 2/32/1 17/31/1 18/33/1
f 2/34/1 18/33/1 19/35/1
f 2/36/1 19/35/1 20/37/1
f 2/38/1 20/37/1 21/39/1
f 2/40/1 21/39/1 22/41/1
f 2/42/1 22/41/1 23/43/1
f 2/44/1 23/43/1 24/45/1
f 2/46/1 24/45/1 25/47/1
f 2/48/1 25/47/1 26/49/1
f 2/50/1 26/51/1 27/52/1
f 2/53/1 27/52/1 28/54/1
f 2/55/1 28/54/1 29/56/1
f 2/57/1 29/56/1 30/58/1
f 2/59/1 30/58/1 31/60/1
f 2/61/1 31/60/1 32/62/1
f 2/63/1 32/62/1 33/64/1
f 2/65/1 33/64/1 1/2/1
f 18/33/2 10/17/2 1/2/2
f 1/2/2 33/64/2 32/62/2
f 32/62/2 31/60/2 30/58/2
f 30/58/2 29/56/2 28/54/2
f 28/54/2 27/52/2 26/49/2
f 26/49/2 25/47/2 24/45/2
f 24/45/2 23/43/2 22/41/2
f 22/41/2 21/39/2 20/37/2
f 20/37/2 19/35/2 18/33/2
f 18/33/2 17/31/2 16/29/2
f 16/29/2 15/27/2 14/25/2
f 14/25/2 13/23/2 12/21/2
f 12/21/2 11/19/2 10/17/2
f 10/17/2 9/15/2 8/13/2
f 8/13/2 7/11/2 6/9/2
f 6/9/2 5/7/2 4/5/2
f 4/5/2 3/3/2 1/2/2
f 1/2/2 32/62/2 30/58/2
f 30/58/2 28/54/2 26/49/2
f 26/49/2 24/45/2 22/41/2
f 22/41/2 20/37/2 18/33/2
f 18/33/2 16/29/2 14/25/2
f 14/25/2 12/21/2 10/17/2
f 10/17/2 8/13/2 6/9/2
f 6/9/2 4/5/2 1/2/2
f 1/2/2 30/58/2 26/49/2
f 26/49/2 22/41/2 18/33/2
f 18/33/2 14/25/2 10/17/2
f 10/17/2 6/9/2 1/2/2
f 1/2/2 26/49/2 18/33/2
