# Blender 4.1.1
# www.blender.org
mtllib slash2.mtl
o 平面.001
v 2.966667 -0.000000 0.063347
v -2.966667 -0.000000 0.063348
v 2.966667 -0.000000 0.065953
v -2.966667 -0.000000 0.065954
v 0.000000 -0.000000 1.299593
v 0.000000 -0.000000 2.339458
v 1.366667 -0.000000 1.777700
v 1.366667 -0.000000 0.945286
v -1.366667 -0.000000 0.945286
v -1.366667 -0.000000 1.777700
v -0.658333 -0.000000 2.219488
v -0.658333 -0.000000 1.205555
v 0.658333 -0.000000 1.205555
v 0.658333 -0.000000 2.219488
v 2.154167 -0.000000 0.994142
v 2.154167 -0.000000 0.576633
v -2.154166 -0.000000 0.576633
v -2.154166 -0.000000 0.994142
v -2.561979 -0.000000 0.399512
v -2.561979 -0.000000 0.590121
v -1.752604 -0.000000 1.410601
v -1.752604 -0.000000 0.766191
v -1.003125 -0.000000 1.094151
v -1.003125 -0.000000 2.046498
v -0.311405 -0.000000 2.314523
v -0.311405 -0.000000 1.277484
v 0.326042 -0.000000 1.275400
v 0.326042 -0.000000 2.312024
v 1.003125 -0.000000 2.046498
v 1.003125 -0.000000 1.094151
v 1.752604 -0.000000 0.766191
v 1.752604 -0.000000 1.410601
v 2.561979 -0.000000 0.590121
v 2.561979 -0.000000 0.399511
v 2.966666 -0.001818 0.091945
v -2.966666 -0.001818 0.091946
v 2.966666 0.001818 0.091945
v -2.966666 0.001818 0.091946
v 0.000000 -0.903344 1.654736
v 0.000000 0.903344 1.654736
v 1.366667 0.616718 1.235120
v 1.366667 -0.616718 1.235120
v -1.366667 -0.616718 1.235121
v -1.366667 0.616718 1.235120
v -0.658333 0.831270 1.552533
v -0.658333 -0.831270 1.552534
v 0.658333 -0.831270 1.552534
v 0.658333 0.831270 1.552533
v 2.154166 0.291145 0.735849
v 2.154166 -0.291145 0.735849
v -2.154166 -0.291145 0.735849
v -2.154166 0.291145 0.735849
v -2.561979 -0.130937 0.487296
v -2.561979 0.130937 0.487296
v -1.752604 0.460414 0.996839
v -1.752604 -0.460415 0.996839
v -1.003125 -0.741647 1.421741
v -1.003125 0.741647 1.421741
v -0.311405 0.886848 1.631737
v -0.311405 -0.886848 1.631737
v 0.326042 -0.885274 1.629523
v 0.326042 0.885274 1.629523
v 1.003125 0.741647 1.421741
v 1.003125 -0.741647 1.421741
v 1.752604 -0.460415 0.996839
v 1.752604 0.460415 0.996839
v 2.561979 0.130937 0.487296
v 2.561979 -0.130937 0.487296
vn -0.0000 1.0000 -0.0000
vn 0.6988 -0.0000 -0.7153
vn -0.0771 -0.0000 -0.9970
vn -0.5253 -0.0000 -0.8509
vn 0.4567 -0.0000 -0.8896
vn 0.2226 -0.0000 -0.9749
vn -0.3547 -0.0000 -0.9350
vn -0.5204 -0.0000 -0.8539
vn 0.5450 -0.0000 -0.8385
vn 0.5204 -0.0000 -0.8539
vn 0.5253 -0.0000 -0.8509
vn 0.3547 -0.0000 -0.9350
vn 0.0737 -0.0000 -0.9973
vn -0.2257 -0.0000 -0.9742
vn -0.4567 -0.0000 -0.8896
vn -0.5450 -0.0000 -0.8385
vn -0.6988 -0.0000 -0.7153
vt 0.999956 0.939978
vt -0.000687 0.997329
vt -0.000632 0.934842
vt 1.000341 0.502568
vt -0.000192 0.434945
vt 1.000396 0.440081
vt 1.000561 0.252620
vt 0.000028 0.184996
vt 1.000616 0.190133
vt 1.000176 0.690030
vt -0.000467 0.747380
vt -0.000412 0.684893
vt 1.000288 0.562267
vt -0.000357 0.622406
vt -0.000300 0.557130
vt 1.000451 0.377594
vt -0.000082 0.309970
vt 1.000506 0.315107
vt 1.000671 0.127646
vt 0.000138 0.060022
vt 1.000726 0.065158
vt 1.000066 0.815004
vt -0.000577 0.872355
vt -0.000522 0.809867
vt 1.000011 0.877491
vt 1.000121 0.752517
vt 1.000231 0.627542
vt -0.000247 0.497432
vt -0.000137 0.372458
vt -0.000027 0.247483
vt 0.000083 0.122509
vt 0.000193 -0.002465
vt 1.000781 0.002671
vt 1.001140 0.999892
vt -0.000500 0.937406
vt 1.001140 0.937406
vt 1.001140 0.500000
vt -0.000500 0.437513
vt 1.001140 0.437513
vt 1.001140 0.187567
vt -0.000500 0.250054
vt -0.000500 0.187567
vt 1.001140 0.749946
vt -0.000500 0.687460
vt 1.001140 0.687460
vt 1.001140 0.624973
vt -0.000500 0.559698
vt 1.001140 0.559698
vt 1.001140 0.375027
vt -0.000500 0.312540
vt 1.001140 0.312540
vt 1.001140 0.125081
vt -0.000500 0.062594
vt 1.001140 0.062594
vt 1.001140 0.874919
vt -0.000500 0.812433
vt 1.001140 0.812433
vt -0.000500 0.874919
vt -0.000500 0.749946
vt -0.000500 0.624973
vt -0.000500 0.500000
vt -0.000500 0.375027
vt 1.001140 0.250054
vt -0.000500 0.125081
vt -0.000500 0.000108
vt 1.001140 0.000108
vt 0.999901 1.002465
vt -0.000500 0.999892
s 0
usemtl マテリアル
f 19/1/1 4/2/1 20/3/1
f 5/4/1 28/5/1 27/6/1
f 8/7/1 32/8/1 31/9/1
f 23/10/1 10/11/1 24/12/1
f 26/13/1 11/14/1 25/15/1
f 13/16/1 29/17/1 30/18/1
f 16/19/1 33/20/1 34/21/1
f 22/22/1 18/23/1 21/24/1
f 17/25/1 20/3/1 18/23/1
f 9/26/1 21/24/1 10/11/1
f 12/27/1 24/12/1 11/14/1
f 5/4/1 25/15/1 6/28/1
f 27/6/1 14/29/1 13/16/1
f 30/18/1 7/30/1 8/7/1
f 31/9/1 15/31/1 16/19/1
f 34/21/1 3/32/1 1/33/1
f 36/34/2 54/35/2 53/36/2
f 39/37/3 62/38/3 61/39/3
f 65/40/4 41/41/4 66/42/4
f 43/43/5 58/44/5 57/45/5
f 46/46/6 59/47/6 60/48/6
f 47/49/7 63/50/7 64/51/7
f 50/52/8 67/53/8 68/54/8
f 51/55/9 55/56/9 56/57/9
f 53/36/10 52/58/10 51/55/10
f 56/57/11 44/59/11 43/43/11
f 57/45/12 45/60/12 46/46/12
f 60/48/13 40/61/13 39/37/13
f 47/49/14 62/38/14 48/62/14
f 64/51/15 41/41/15 42/63/15
f 65/40/16 49/64/16 50/52/16
f 68/54/17 37/65/17 35/66/17
f 19/1/1 2/67/1 4/2/1
f 5/4/1 6/28/1 28/5/1
f 8/7/1 7/30/1 32/8/1
f 23/10/1 9/26/1 10/11/1
f 26/13/1 12/27/1 11/14/1
f 13/16/1 14/29/1 29/17/1
f 16/19/1 15/31/1 33/20/1
f 22/22/1 17/25/1 18/23/1
f 17/25/1 19/1/1 20/3/1
f 9/26/1 22/22/1 21/24/1
f 12/27/1 23/10/1 24/12/1
f 5/4/1 26/13/1 25/15/1
f 27/6/1 28/5/1 14/29/1
f 30/18/1 29/17/1 7/30/1
f 31/9/1 32/8/1 15/31/1
f 34/21/1 33/20/1 3/32/1
f 36/34/2 38/68/2 54/35/2
f 39/37/3 40/61/3 62/38/3
f 65/40/4 42/63/4 41/41/4
f 43/43/5 44/59/5 58/44/5
f 46/46/6 45/60/6 59/47/6
f 47/49/7 48/62/7 63/50/7
f 50/52/8 49/64/8 67/53/8
f 51/55/9 52/58/9 55/56/9
f 53/36/10 54/35/10 52/58/10
f 56/57/11 55/56/11 44/59/11
f 57/45/12 58/44/12 45/60/12
f 60/48/13 59/47/13 40/61/13
f 47/49/14 61/39/14 62/38/14
f 64/51/15 63/50/15 41/41/15
f 65/40/16 66/42/16 49/64/16
f 68/54/17 67/53/17 37/65/17
