# Blender 4.2.3 LTS
# www.blender.org
mtllib horizontalBar.mtl
o 円柱.001
v -1.958925 2.732444 -0.099575
v 1.844147 2.722171 -0.099575
v -1.958833 2.766398 -0.097661
v 1.844239 2.756125 -0.097661
v -1.958745 2.799047 -0.091995
v 1.844327 2.788774 -0.091995
v -1.958663 2.829137 -0.082793
v 1.844408 2.818864 -0.082793
v -1.958592 2.855511 -0.070410
v 1.844480 2.845238 -0.070410
v -1.958534 2.877155 -0.055321
v 1.844538 2.866882 -0.055321
v -1.958490 2.893239 -0.038106
v 1.844582 2.882966 -0.038106
v -1.958463 2.903142 -0.019426
v 1.844608 2.892870 -0.019426
v -1.958454 2.906487 -0.000000
v 1.844617 2.896214 -0.000000
v -1.958463 2.903142 0.019426
v 1.844608 2.892870 0.019426
v -1.958490 2.893239 0.038106
v 1.844582 2.882966 0.038106
v -1.958534 2.877155 0.055321
v 1.844538 2.866882 0.055321
v -1.958592 2.855511 0.070410
v 1.844480 2.845238 0.070410
v -1.958663 2.829137 0.082793
v 1.844408 2.818864 0.082793
v -1.958745 2.799047 0.091995
v 1.844327 2.788774 0.091995
v -1.958833 2.766398 0.097661
v 1.844239 2.756125 0.097661
v -1.958925 2.732444 0.099575
v 1.844147 2.722171 0.099575
v -1.959016 2.698490 0.097661
v 1.844056 2.688217 0.097661
v -1.959104 2.665841 0.091995
v 1.843967 2.655568 0.091995
v -1.959186 2.635751 0.082793
v 1.843886 2.625479 0.082793
v -1.959257 2.609378 0.070410
v 1.843815 2.599105 0.070410
v -1.959315 2.587733 0.055321
v 1.843756 2.577460 0.055321
v -1.959359 2.571650 0.038106
v 1.843713 2.561377 0.038106
v -1.959386 2.561746 0.019426
v 1.843686 2.551473 0.019426
v -1.959395 2.558402 -0.000000
v 1.843677 2.548129 -0.000000
v -1.959386 2.561746 -0.019426
v 1.843686 2.551473 -0.019426
v -1.959359 2.571650 -0.038106
v 1.843713 2.561377 -0.038106
v -1.959315 2.587733 -0.055321
v 1.843756 2.577460 -0.055321
v -1.959257 2.609378 -0.070410
v 1.843815 2.599105 -0.070410
v -1.959186 2.635751 -0.082793
v 1.843886 2.625479 -0.082793
v -1.959104 2.665841 -0.091995
v 1.843967 2.655568 -0.091995
v -1.959016 2.698490 -0.097661
v 1.844056 2.688217 -0.097661
vn 0.0002 0.0563 -0.9984
vn 0.0005 0.1710 -0.9853
vn 0.0008 0.2924 -0.9563
vn 0.0011 0.4250 -0.9052
vn 0.0015 0.5719 -0.8203
vn 0.0020 0.7307 -0.6827
vn 0.0024 0.8835 -0.4684
vn 0.0027 0.9855 -0.1697
vn 0.0027 0.9855 0.1697
vn 0.0024 0.8835 0.4684
vn 0.0020 0.7307 0.6827
vn 0.0015 0.5719 0.8203
vn 0.0011 0.4250 0.9052
vn 0.0008 0.2924 0.9563
vn 0.0005 0.1710 0.9853
vn 0.0002 0.0563 0.9984
vn -0.0002 -0.0563 0.9984
vn -0.0005 -0.1710 0.9853
vn -0.0008 -0.2924 0.9563
vn -0.0011 -0.4250 0.9052
vn -0.0015 -0.5719 0.8203
vn -0.0020 -0.7307 0.6827
vn -0.0024 -0.8835 0.4684
vn -0.0027 -0.9855 0.1696
vn -0.0027 -0.9855 -0.1696
vn -0.0024 -0.8835 -0.4684
vn -0.0020 -0.7307 -0.6827
vn -0.0015 -0.5719 -0.8203
vn -0.0011 -0.4250 -0.9052
vn -0.0008 -0.2924 -0.9563
vn 1.0000 -0.0027 -0.0000
vn -0.0005 -0.1710 -0.9853
vn -0.0002 -0.0563 -0.9984
vn -1.0000 0.0027 -0.0000
vn -0.0027 -0.9855 0.1697
vn -0.0027 -0.9855 -0.1697
vn 1.0000 -0.0026 -0.0000
vn 1.0000 -0.0028 -0.0000
vn -1.0000 0.0028 -0.0000
vt 0.500000 0.004511
vt 0.004511 0.004511
vt 0.004511 0.035479
vt 0.500000 0.035479
vt 0.004511 0.066447
vt 0.500000 0.066447
vt 0.004511 0.097415
vt 0.500000 0.097415
vt 0.004511 0.128383
vt 0.004511 0.159351
vt 0.500000 0.159351
vt 0.004511 0.190319
vt 0.004511 0.221287
vt 0.500000 0.221287
vt 0.004511 0.252255
vt 0.004511 0.283223
vt 0.500000 0.283223
vt 0.004511 0.314191
vt 0.004511 0.345160
vt 0.500000 0.345160
vt 0.004511 0.376128
vt 0.004511 0.407096
vt 0.500000 0.407096
vt 0.004511 0.438064
vt 0.500000 0.438064
vt 0.004511 0.469032
vt 0.004511 0.500000
vt 0.500000 0.500000
vt 0.004511 0.530968
vt 0.500000 0.530968
vt 0.004511 0.561936
vt 0.004511 0.592904
vt 0.500000 0.592904
vt 0.004511 0.623872
vt 0.500000 0.623872
vt 0.004511 0.654840
vt 0.004511 0.685809
vt 0.500000 0.685808
vt 0.004511 0.716777
vt 0.004511 0.747745
vt 0.500000 0.747745
vt 0.004511 0.778713
vt 0.004511 0.809681
vt 0.500000 0.809681
vt 0.004511 0.840649
vt 0.004511 0.871617
vt 0.500000 0.871617
vt 0.004511 0.902585
vt 0.500000 0.902585
vt 0.004511 0.933553
vt 0.544683 0.212991
vt 0.607783 0.179264
vt 0.535521 0.209196
vt 0.500000 0.933553
vt 0.004511 0.964521
vt 0.500000 0.964521
vt 0.004511 0.995489
vt 0.554411 0.105208
vt 0.514751 0.031010
vt 0.564329 0.105208
vt 0.500000 0.128383
vt 0.500000 0.190319
vt 0.500000 0.252255
vt 0.500000 0.314191
vt 0.500000 0.376128
vt 0.500000 0.469032
vt 0.500000 0.561936
vt 0.500000 0.654840
vt 0.500000 0.716777
vt 0.500000 0.778713
vt 0.500000 0.840649
vt 0.527274 0.203686
vt 0.607783 0.149891
vt 0.520261 0.196673
vt 0.603988 0.140728
vt 0.514751 0.188426
vt 0.598478 0.132482
vt 0.510956 0.179264
vt 0.591465 0.125469
vt 0.509021 0.169536
vt 0.509021 0.159619
vt 0.583219 0.119959
vt 0.510956 0.149891
vt 0.574056 0.116164
vt 0.514751 0.140728
vt 0.564329 0.114229
vt 0.520261 0.132482
vt 0.544684 0.116164
vt 0.527274 0.125469
vt 0.535521 0.119959
vt 0.554411 0.114229
vt 0.609718 0.159619
vt 0.609718 0.169536
vt 0.603988 0.188426
vt 0.554411 0.214926
vt 0.598478 0.196673
vt 0.574056 0.212991
vt 0.591465 0.203686
vt 0.583219 0.209196
vt 0.564328 0.214926
vt 0.500000 0.995489
vt 0.574056 0.103273
vt 0.535521 0.010241
vt 0.583219 0.099477
vt 0.544684 0.006445
vt 0.591465 0.093967
vt 0.598478 0.086954
vt 0.554411 0.004511
vt 0.603988 0.078708
vt 0.574056 0.006446
vt 0.607783 0.069545
vt 0.583219 0.010241
vt 0.609718 0.059818
vt 0.609718 0.049900
vt 0.591465 0.015751
vt 0.607783 0.040173
vt 0.598478 0.022764
vt 0.603988 0.031010
vt 0.564329 0.004511
vt 0.527274 0.015751
vt 0.520261 0.022764
vt 0.544684 0.103273
vt 0.510956 0.040173
vt 0.535521 0.099477
vt 0.509021 0.049900
vt 0.509021 0.059818
vt 0.527274 0.093967
vt 0.510956 0.069545
vt 0.520261 0.086954
vt 0.514751 0.078708
s 0
usemtl マテリアル.003
f 2/1/1 1/2/1 3/3/1
f 4/4/2 3/3/2 5/5/2
f 6/6/3 5/5/3 7/7/3
f 8/8/4 7/7/4 9/9/4
f 9/9/5 11/10/5 12/11/5
f 12/11/6 11/10/6 13/12/6
f 13/12/7 15/13/7 16/14/7
f 16/14/8 15/13/8 17/15/8
f 17/15/9 19/16/9 20/17/9
f 20/17/10 19/16/10 21/18/10
f 21/18/11 23/19/11 24/20/11
f 24/20/12 23/19/12 25/21/12
f 25/21/13 27/22/13 28/23/13
f 27/22/14 29/24/14 30/25/14
f 30/25/15 29/24/15 31/26/15
f 31/26/16 33/27/16 34/28/16
f 33/27/17 35/29/17 36/30/17
f 36/30/18 35/29/18 37/31/18
f 37/31/19 39/32/19 40/33/19
f 39/32/20 41/34/20 42/35/20
f 42/35/21 41/34/21 43/36/21
f 43/36/22 45/37/22 46/38/22
f 46/38/23 45/37/23 47/39/23
f 47/39/24 49/40/24 50/41/24
f 50/41/25 49/40/25 51/42/25
f 51/42/26 53/43/26 54/44/26
f 54/44/27 53/43/27 55/45/27
f 55/45/28 57/46/28 58/47/28
f 58/47/29 57/46/29 59/48/29
f 60/49/30 59/48/30 61/50/30
f 10/51/31 26/52/31 8/53/31
f 62/54/32 61/50/32 63/55/32
f 64/56/33 63/55/33 1/57/33
f 59/58/34 39/59/34 61/60/34
f 2/1/1 3/3/1 4/4/1
f 4/4/2 5/5/2 6/6/2
f 6/6/3 7/7/3 8/8/3
f 8/8/4 9/9/4 10/61/4
f 9/9/5 12/11/5 10/61/5
f 12/11/6 13/12/6 14/62/6
f 13/12/7 16/14/7 14/62/7
f 16/14/8 17/15/8 18/63/8
f 17/15/9 20/17/9 18/63/9
f 20/17/10 21/18/10 22/64/10
f 21/18/11 24/20/11 22/64/11
f 24/20/12 25/21/12 26/65/12
f 25/21/13 28/23/13 26/65/13
f 27/22/14 30/25/14 28/23/14
f 30/25/15 31/26/15 32/66/15
f 31/26/16 34/28/16 32/66/16
f 33/27/17 36/30/17 34/28/17
f 36/30/18 37/31/18 38/67/18
f 37/31/19 40/33/19 38/67/19
f 39/32/20 42/35/20 40/33/20
f 42/35/21 43/36/21 44/68/21
f 43/36/22 46/38/22 44/68/22
f 46/38/23 47/39/23 48/69/23
f 47/39/35 50/41/35 48/69/35
f 50/41/36 51/42/36 52/70/36
f 51/42/26 54/44/26 52/70/26
f 54/44/27 55/45/27 56/71/27
f 55/45/28 58/47/28 56/71/28
f 58/47/29 59/48/29 60/49/29
f 60/49/30 61/50/30 62/54/30
f 6/72/31 32/73/31 4/74/31
f 4/74/31 34/75/31 2/76/31
f 2/76/31 36/77/31 64/78/31
f 64/78/31 38/79/31 62/80/31
f 62/80/31 38/79/31 60/81/31
f 60/81/31 40/82/31 58/83/31
f 38/79/31 40/82/31 60/81/31
f 58/83/31 42/84/31 56/85/31
f 56/85/31 44/86/31 54/87/31
f 42/84/31 44/86/31 56/85/31
f 54/87/31 48/88/31 52/89/31
f 52/89/37 48/88/37 50/90/37
f 48/88/31 54/87/31 46/91/31
f 46/91/31 54/87/31 44/86/31
f 42/84/31 58/83/31 40/82/31
f 38/79/31 64/78/31 36/77/31
f 36/77/31 2/76/31 34/75/31
f 34/75/31 4/74/31 32/73/31
f 32/73/31 6/72/31 30/92/31
f 30/92/31 6/72/31 28/93/31
f 28/93/31 8/53/31 26/52/31
f 6/72/31 8/53/31 28/93/31
f 26/52/31 10/51/31 24/94/31
f 24/94/31 12/95/31 22/96/31
f 10/51/31 12/95/31 24/94/31
f 22/96/37 16/97/37 20/98/37
f 20/98/38 16/97/38 18/99/38
f 16/97/37 22/96/37 14/100/37
f 14/100/31 22/96/31 12/95/31
f 62/54/32 63/55/32 64/56/32
f 64/56/33 1/57/33 2/101/33
f 63/102/34 33/103/34 1/104/34
f 1/104/34 31/105/34 3/106/34
f 3/106/34 31/105/34 5/107/34
f 5/107/34 29/108/34 7/109/34
f 31/105/34 29/108/34 5/107/34
f 7/109/34 25/110/34 9/111/34
f 9/111/34 23/112/34 11/113/34
f 11/113/34 23/112/34 13/114/34
f 13/114/34 21/115/34 15/116/34
f 23/112/39 21/115/39 13/114/39
f 15/116/39 19/117/39 17/118/39
f 19/117/34 15/116/34 21/115/34
f 23/112/34 9/111/34 25/110/34
f 25/110/34 7/109/34 27/119/34
f 27/119/34 7/109/34 29/108/34
f 31/105/34 1/104/34 33/103/34
f 33/103/34 63/102/34 35/120/34
f 35/120/34 63/102/34 37/121/34
f 37/121/34 61/60/34 39/59/34
f 63/102/34 61/60/34 37/121/34
f 39/59/34 57/122/34 41/123/34
f 41/123/34 55/124/34 43/125/34
f 43/125/34 55/124/34 45/126/34
f 45/126/34 53/127/34 47/128/34
f 55/124/34 53/127/34 45/126/34
f 47/128/39 51/129/39 49/130/39
f 51/129/34 47/128/34 53/127/34
f 55/124/34 41/123/34 57/122/34
f 57/122/34 39/59/34 59/58/34
