# Blender 4.2.3 LTS
# www.blender.org
mtllib horizontalBar.mtl
o 立方体
v 2.046309 3.138654 -0.074191
v 2.046309 3.376679 -0.074191
v 2.046309 3.138654 0.074191
v 2.046309 3.376679 0.074191
v -2.234314 3.138654 -0.074191
v -2.234314 3.376679 -0.074191
v -2.234314 3.138654 0.074191
v -2.234314 3.376679 0.074191
v 2.046309 2.987833 -0.074191
v 2.046309 2.987833 0.074191
v -2.234314 2.987833 0.074191
v -2.234314 2.987833 -0.074191
v 2.046309 2.797321 -0.074191
v 2.046309 2.797321 0.074191
v -2.234314 2.797321 0.074191
v -2.234314 2.797321 -0.074191
vn 1.0000 -0.0000 -0.0000
vn -0.0000 -0.0000 1.0000
vn -1.0000 -0.0000 -0.0000
vn -0.0000 -0.0000 -1.0000
vn -0.0000 1.0000 -0.0000
vn -0.0000 -1.0000 -0.0000
vt 0.625000 0.000000
vt 0.375000 0.250000
vt 0.375000 0.000000
vt 0.625000 0.250000
vt 0.375000 0.500000
vt 0.625000 0.750000
vt 0.375000 0.750000
vt 0.375000 1.000000
vt 0.875000 0.500000
vt 0.625000 0.500000
vt 0.125000 0.750000
vt 0.125000 0.500000
vt 0.625000 1.000000
vt 0.875000 0.750000
s 0
f 2/1/1 3/2/1 1/3/1
f 4/4/2 7/5/2 3/2/2
f 7/5/3 6/6/3 5/7/3
f 6/6/4 1/8/4 5/7/4
f 3/2/1 9/3/1 1/3/1
f 4/9/5 6/6/5 8/10/5
f 12/7/3 15/5/3 11/5/3
f 5/7/3 11/5/3 7/5/3
f 1/8/4 12/7/4 5/7/4
f 7/5/2 10/2/2 3/2/2
f 15/5/6 13/11/6 14/12/6
f 10/2/1 13/3/1 9/3/1
f 9/8/4 16/7/4 12/7/4
f 11/5/2 14/2/2 10/2/2
f 2/1/1 4/4/1 3/2/1
f 4/4/2 8/10/2 7/5/2
f 7/5/3 8/10/3 6/6/3
f 6/6/4 2/13/4 1/8/4
f 3/2/1 10/2/1 9/3/1
f 4/9/5 2/14/5 6/6/5
f 12/7/3 16/7/3 15/5/3
f 5/7/3 12/7/3 11/5/3
f 1/8/4 9/8/4 12/7/4
f 7/5/2 11/5/2 10/2/2
f 15/5/6 16/7/6 13/11/6
f 10/2/1 14/2/1 13/3/1
f 9/8/4 13/8/4 16/7/4
f 11/5/2 15/5/2 14/2/2
