# Blender 4.4.0
# www.blender.org
mtllib PointyTower.mtl
o PointyTower
v 0.324904 0.376991 -0.367437
v 0.324904 0.538042 -0.367437
v 0.062252 0.538042 -0.476231
v 0.000000 0.735200 -0.502017
v 0.354979 0.735200 -0.354979
v 0.354979 0.019587 -0.354979
v 0.062252 0.376992 -0.476231
v 0.000000 0.019587 -0.502017
v 0.502017 0.019587 0.000000
v 0.354979 0.019587 0.354979
v -0.000000 0.019587 0.502017
v -0.354979 0.019587 0.354979
v -0.502016 0.019587 -0.000000
v -0.354979 0.019587 -0.354979
v -0.300686 0.286178 -0.377468
v -0.300686 0.125127 -0.377468
v -0.354979 0.735200 -0.354979
v -0.037638 0.286178 -0.486426
v -0.037638 0.125127 -0.486426
v -0.000000 0.782286 -0.392913
v 0.277832 0.782286 -0.277832
v 0.485876 0.165062 -0.038966
v 0.377101 0.326113 -0.301573
v 0.377101 0.165062 -0.301573
v 0.485876 0.326113 -0.038966
v 0.502017 0.735200 0.000000
v 0.359505 0.294018 0.344053
v 0.402821 0.441203 0.239479
v 0.402821 0.573950 0.239479
v 0.493247 0.573950 0.021172
v 0.493247 0.441203 0.021172
v 0.354979 0.735200 0.354979
v 0.359505 0.132968 0.344053
v 0.469056 0.294018 0.079574
v 0.469056 0.132968 0.079574
v 0.058340 0.503547 0.477851
v -0.000000 0.735200 0.502017
v 0.322902 0.664597 0.368266
v 0.322902 0.503547 0.368266
v 0.058340 0.664597 0.477851
v -0.037784 0.292735 0.486366
v -0.037784 0.131685 0.486366
v -0.301176 0.131685 0.377265
v -0.354979 0.735200 0.354979
v -0.301176 0.292735 0.377265
v -0.370026 0.405189 0.318653
v -0.370026 0.244138 0.318653
v -0.502016 0.735200 -0.000000
v -0.480104 0.405189 0.052901
v -0.480104 0.244138 0.052901
v -0.374879 0.450277 -0.306938
v -0.484643 0.450277 -0.041943
v -0.484643 0.289226 -0.041943
v -0.374879 0.289226 -0.306938
v -0.277832 0.782286 -0.277832
v 0.392913 0.782286 0.000000
v 0.066464 1.503412 -0.365383
v -0.000000 2.630114 -0.392913
v 0.277832 2.630114 -0.277832
v 0.246748 2.326802 -0.290707
v 0.065711 2.326802 -0.365695
v 0.065711 2.216754 -0.365695
v 0.066464 1.613460 -0.365383
v 0.247501 1.503412 -0.290395
v 0.247501 1.613460 -0.290395
v 0.246748 2.216754 -0.290707
v 0.277832 0.782286 0.277832
v -0.000000 0.782286 0.392913
v -0.277832 0.782286 0.277832
v -0.392913 0.782286 -0.000000
v -0.214195 1.136925 -0.304191
v -0.214195 1.026876 -0.304191
v -0.277832 2.630114 -0.277832
v -0.032810 1.026876 -0.379323
v -0.032810 1.136924 -0.379323
v 0.380750 1.272890 -0.029366
v 0.305693 1.382938 -0.210569
v 0.305693 1.272890 -0.210569
v 0.380750 1.382938 -0.029366
v 0.392913 2.630114 0.000000
v 0.000000 2.630114 -0.500708
v 0.354054 2.630114 -0.354054
v 0.361063 1.428466 0.076894
v 0.361063 1.318418 0.076894
v 0.286144 1.318418 0.257765
v 0.360702 2.141808 0.077764
v 0.360702 2.031760 0.077764
v 0.285783 2.031760 0.258636
v 0.286144 1.428466 0.257765
v 0.285783 2.141808 0.258636
v 0.277832 2.630114 0.277832
v 0.049035 1.706683 0.372603
v -0.000000 2.630114 0.392913
v 0.229961 1.596635 0.297660
v 0.049035 1.596635 0.372603
v 0.229961 1.706683 0.297660
v -0.041014 1.784406 0.375925
v -0.222051 1.784406 0.300937
v -0.221299 1.452584 0.301248
v -0.040261 1.452584 0.376237
v -0.040261 1.342536 0.376237
v -0.221299 1.342536 0.301248
v -0.041014 1.894454 0.375925
v -0.222051 1.894454 0.300937
v -0.277832 2.630114 0.277832
v -0.294659 1.082269 0.237207
v -0.392913 2.630114 -0.000000
v -0.369716 0.972221 0.056005
v -0.369716 1.082269 0.056005
v -0.294659 0.972221 0.237207
v -0.378903 1.273677 -0.033824
v -0.379115 1.876970 -0.033312
v -0.304261 1.876970 -0.214025
v -0.304261 1.987018 -0.214025
v -0.304052 1.163629 -0.214530
v -0.304052 1.273677 -0.214530
v -0.378903 1.163629 -0.033824
v -0.379115 1.987018 -0.033312
v -0.354054 2.630114 -0.354054
v 0.500708 2.630114 0.000000
v 0.000000 3.041941 -0.500708
v 0.354054 3.041941 -0.354054
v 0.354054 2.630114 0.354054
v -0.000000 2.630114 0.500708
v -0.354054 2.630114 0.354054
v -0.500708 2.630114 -0.000000
v -0.354054 3.041941 -0.354054
v 0.500708 3.041941 0.000000
v 0.000000 3.041941 -0.598730
v 0.423366 3.041941 -0.423366
v 0.354054 3.041941 0.354054
v -0.000000 3.041941 0.500708
v -0.354054 3.041941 0.354054
v -0.500708 3.041941 -0.000000
v -0.423366 3.041941 -0.423366
v 0.598730 3.041941 0.000000
v -0.000000 3.701494 -0.598730
v 0.423366 3.701494 -0.423366
v 0.423366 3.041941 0.423366
v -0.000000 3.041941 0.598730
v -0.423366 3.041941 0.423366
v -0.598730 3.041941 -0.000000
v -0.423366 3.701494 -0.423366
v 0.598730 3.701494 0.000000
v -0.000000 3.701493 -0.439525
v 0.310791 3.701493 -0.310791
v 0.423366 3.701494 0.423366
v -0.000000 3.701494 0.598730
v -0.423366 3.701494 0.423366
v -0.598730 3.701494 -0.000000
v -0.310791 3.701493 -0.310791
v 0.439525 3.701493 0.000000
v 0.052214 3.757689 -0.417897
v 0.258577 3.757689 -0.332419
v 0.310791 3.701493 0.310791
v -0.000000 3.701493 0.439525
v -0.310791 3.701493 0.310791
v -0.439525 3.701493 -0.000000
v -0.258577 3.757689 -0.332419
v -0.052214 3.757689 -0.417897
v 0.332419 3.757689 -0.258577
v 0.417897 3.757689 -0.052214
v 0.310791 4.035988 -0.310791
v 0.258577 3.979792 -0.332419
v -0.000000 4.035988 -0.439525
v 0.052214 3.979792 -0.417897
v 0.040328 3.782969 -0.322767
v 0.199714 3.782969 -0.256747
v 0.417897 3.757689 0.052214
v 0.332419 3.757689 0.258577
v 0.258577 3.757689 0.332419
v 0.052214 3.757689 0.417897
v -0.052214 3.757689 0.417897
v -0.258577 3.757689 0.332419
v -0.332419 3.757689 0.258577
v -0.417897 3.757689 0.052214
v -0.417897 3.757689 -0.052214
v -0.332419 3.757689 -0.258577
v -0.052214 3.979792 -0.417897
v -0.310791 4.035988 -0.310791
v -0.258577 3.979792 -0.332419
v -0.199715 3.782969 -0.256747
v -0.040328 3.782969 -0.322767
v 0.439525 4.035988 0.000000
v 0.417897 3.979792 -0.052214
v 0.332419 3.979792 -0.258577
v 0.256747 3.782969 -0.199715
v 0.322767 3.782969 -0.040328
v 0.199714 3.954512 -0.256747
v 0.040328 3.954512 -0.322767
v 0.310791 4.035988 0.310791
v 0.332419 3.979792 0.258577
v 0.417897 3.979792 0.052214
v 0.322767 3.782969 0.040328
v 0.256747 3.782969 0.199715
v -0.000000 4.035988 0.439525
v 0.052214 3.979792 0.417897
v 0.258577 3.979792 0.332419
v 0.199714 3.782969 0.256747
v 0.040328 3.782969 0.322767
v -0.310791 4.035988 0.310791
v -0.258577 3.979792 0.332419
v -0.052214 3.979792 0.417897
v -0.040328 3.782969 0.322767
v -0.199715 3.782969 0.256747
v -0.439525 4.035988 -0.000000
v -0.417897 3.979792 0.052214
v -0.332419 3.979792 0.258577
v -0.256747 3.782969 0.199715
v -0.322767 3.782969 0.040328
v -0.332419 3.979792 -0.258577
v -0.417897 3.979792 -0.052214
v -0.322767 3.782969 -0.040328
v -0.256747 3.782969 -0.199715
v -0.040328 3.954512 -0.322767
v -0.199715 3.954512 -0.256747
v 0.322767 3.954512 -0.040328
v 0.256747 3.954512 -0.199715
v -0.000000 4.035988 -0.764979
v 0.540922 4.035988 -0.540922
v 0.256747 3.954512 0.199715
v 0.322767 3.954512 0.040328
v 0.040328 3.954512 0.322767
v 0.199714 3.954512 0.256747
v -0.199715 3.954512 0.256747
v -0.040328 3.954512 0.322767
v -0.322767 3.954512 0.040328
v -0.256747 3.954512 0.199715
v -0.256747 3.954512 -0.199715
v -0.322767 3.954512 -0.040328
v -0.540922 4.035988 -0.540922
v 0.764979 4.035988 0.000000
v -0.000000 4.361210 -0.461074
v 0.326028 4.361210 -0.326029
v 0.540922 4.035988 0.540922
v -0.000000 4.035988 0.764979
v -0.540922 4.035988 0.540922
v -0.764979 4.035988 -0.000000
v -0.326029 4.361210 -0.326029
v 0.461074 4.361210 0.000000
v -0.000000 5.394105 0.000000
v 0.326028 4.361210 0.326029
v -0.000000 4.361210 0.461074
v -0.326029 4.361210 0.326028
v -0.461074 4.361210 -0.000000
v -0.406048 1.987018 -0.041678
v -0.406048 1.876970 -0.041678
v -0.329556 1.987018 -0.221882
v -0.329556 1.876970 -0.221882
v 0.075238 2.326802 -0.386125
v 0.075238 2.216754 -0.386125
v 0.252663 2.326802 -0.303390
v 0.252663 2.216754 -0.303390
v -0.057199 1.894454 0.410633
v -0.057199 1.784406 0.410633
v -0.234624 1.894454 0.327898
v -0.234624 1.784406 0.327898
v 0.388209 2.141808 0.089440
v 0.388209 2.031760 0.089440
v 0.311717 2.141808 0.269644
v 0.311717 2.031760 0.269644
v 0.389358 1.428466 0.088904
v 0.389358 1.318418 0.088904
v 0.312866 1.428466 0.269108
v 0.312866 1.318418 0.269108
v 0.244170 1.706683 0.334674
v 0.244170 1.596635 0.334674
v 0.061406 1.706683 0.404830
v 0.061406 1.596635 0.404830
v -0.319500 1.082269 0.245761
v -0.319500 0.972221 0.245761
v -0.383236 1.082269 0.060660
v -0.383236 0.972221 0.060660
v -0.056051 1.452584 0.410097
v -0.056051 1.342536 0.410097
v -0.233475 1.452584 0.327362
v -0.233475 1.342536 0.327362
v 0.076386 1.613460 -0.386661
v 0.076386 1.503412 -0.386661
v 0.253811 1.613460 -0.303926
v 0.253811 1.503412 -0.303926
v 0.339836 1.382938 -0.222325
v 0.339836 1.272890 -0.222325
v 0.403572 1.382938 -0.037224
v 0.403572 1.272890 -0.037224
v -0.223834 1.136925 -0.338976
v -0.223834 1.026876 -0.338976
v -0.041070 1.136924 -0.409133
v -0.041070 1.026876 -0.409133
v -0.406308 1.273677 -0.042214
v -0.406308 1.163629 -0.042214
v -0.329815 1.273677 -0.222418
v -0.329815 1.163629 -0.222418
v 0.525104 0.573950 0.037288
v 0.525104 0.441203 0.037288
v 0.432834 0.573950 0.254663
v 0.432834 0.441203 0.254663
v -0.522297 0.450277 -0.063950
v -0.522297 0.289226 -0.063950
v -0.410354 0.450277 -0.327671
v -0.410354 0.289226 -0.327671
v -0.314082 0.286178 -0.406717
v -0.314082 0.125127 -0.406717
v -0.053596 0.286178 -0.517392
v -0.053596 0.125127 -0.517392
v 0.394691 0.326113 -0.307122
v 0.394691 0.165062 -0.307122
v 0.498780 0.326113 -0.044286
v 0.498780 0.165062 -0.044286
v 0.072655 0.538042 -0.502801
v 0.072655 0.376992 -0.502801
v 0.332308 0.538042 -0.392819
v 0.332308 0.376991 -0.392819
v -0.049639 0.292735 0.524351
v -0.049639 0.131685 0.524351
v -0.309293 0.292735 0.403272
v -0.309293 0.131685 0.403272
v -0.397430 0.405189 0.332389
v -0.397430 0.244138 0.332389
v -0.504642 0.405189 0.061502
v -0.504642 0.244138 0.061502
v 0.331936 0.664597 0.389767
v 0.331936 0.503547 0.389767
v 0.064469 0.664597 0.492438
v 0.064469 0.503547 0.492438
v 0.505759 0.294018 0.091201
v 0.505759 0.132968 0.091201
v 0.393816 0.294018 0.354921
v 0.393816 0.132968 0.354921
vn 0.3827 -0.0000 -0.9239
vn -0.0000 -1.0000 -0.0000
vn -0.3827 -0.0000 -0.9239
vn 0.1620 0.9060 -0.3910
vn 0.9239 -0.0000 -0.3827
vn 0.9239 -0.0000 0.3827
vn 0.3827 -0.0000 0.9239
vn -0.3827 -0.0000 0.9239
vn -0.9239 -0.0000 0.3827
vn -0.9239 -0.0000 -0.3827
vn -0.1620 0.9060 -0.3910
vn 0.3910 0.9060 -0.1620
vn 0.3910 0.9060 0.1620
vn 0.1620 0.9060 0.3910
vn -0.1620 0.9060 0.3910
vn -0.3910 0.9060 0.1620
vn -0.3910 0.9060 -0.1620
vn -0.0000 1.0000 -0.0000
vn 0.1009 0.9646 -0.2437
vn -0.1010 0.9646 -0.2437
vn 0.2437 0.9646 -0.1009
vn -0.7893 -0.0000 -0.6140
vn 0.9923 -0.0000 0.1240
vn 0.2437 0.9646 0.1009
vn 0.1010 0.9646 0.2437
vn -0.1009 0.9646 0.2437
vn -0.2437 0.9646 0.1009
vn -0.2437 0.9646 -0.1009
vn -0.9923 -0.0000 0.1240
vn 0.7893 -0.0000 -0.6140
vn -0.1240 -0.0000 -0.9923
vn 0.6140 -0.0000 0.7893
vn 0.1010 -0.9646 -0.2437
vn 0.6140 -0.0000 -0.7893
vn -0.1240 -0.0000 0.9923
vn 0.9923 -0.0000 -0.1240
vn -0.7893 -0.0000 0.6140
vn 0.7893 -0.0000 0.6140
vn -0.9923 -0.0000 -0.1240
vn 0.1240 -0.0000 0.9923
vn -0.6140 -0.0000 -0.7893
vn -0.6140 -0.0000 0.7893
vn 0.1240 -0.0000 -0.9923
vn -0.1009 -0.9646 -0.2437
vn 0.2437 -0.9646 -0.1009
vn 0.2897 0.6535 -0.6993
vn 0.2437 -0.9646 0.1009
vn 0.1009 -0.9646 0.2437
vn -0.1010 -0.9646 0.2437
vn -0.2437 -0.9646 0.1009
vn -0.2437 -0.9646 -0.1009
vn -0.2897 0.6535 -0.6993
vn 0.6993 0.6535 -0.2897
vn 0.3538 0.3813 -0.8541
vn 0.6993 0.6535 0.2897
vn 0.2897 0.6535 0.6993
vn -0.2897 0.6535 0.6993
vn -0.6993 0.6535 0.2897
vn -0.6993 0.6535 -0.2897
vn -0.3538 0.3813 -0.8541
vn 0.8541 0.3813 -0.3538
vn 0.8541 0.3813 0.3538
vn 0.3538 0.3813 0.8541
vn -0.3538 0.3813 0.8541
vn -0.8541 0.3813 0.3538
vn -0.8541 0.3813 -0.3538
vn -0.2966 -0.0000 0.9550
vn -0.9205 -0.0000 -0.3907
vn 0.2966 -0.0000 -0.9550
vn -0.9063 -0.0000 -0.4226
vn 0.4226 -0.0000 -0.9063
vn 0.9063 -0.0000 0.4226
vn -0.4226 -0.0000 0.9063
vn 0.3907 -0.0000 -0.9205
vn 0.9205 -0.0000 0.3907
vn -0.3907 -0.0000 0.9205
vn 0.9336 -0.0000 -0.3584
vn 0.3584 -0.0000 0.9336
vn -0.9336 -0.0000 0.3584
vn 0.3256 -0.0000 0.9455
vn -0.9455 -0.0000 0.3256
vn -0.3256 -0.0000 -0.9455
vn 0.9455 -0.0000 -0.3256
vn -0.9637 -0.0000 0.2670
vn -0.3584 -0.0000 -0.9336
vn 0.9637 -0.0000 -0.2670
vn -0.2927 -0.0000 0.9562
vn 0.2927 -0.0000 -0.9562
vn 0.4514 -0.0000 -0.8923
vn -0.4514 -0.0000 0.8923
vn -0.5046 -0.0000 0.8634
vn 0.5046 -0.0000 -0.8634
vn -0.9092 -0.0000 0.4164
vn -0.3910 -0.0000 -0.9204
vn 0.8889 -0.0000 -0.4581
vn -0.3009 -0.0000 -0.9537
vn 0.9297 -0.0000 -0.3682
vn 0.3811 -0.0000 0.9245
vn -0.9312 -0.0000 -0.3646
vn 0.3900 -0.0000 -0.9208
vn 0.9600 -0.0000 0.2800
vn 0.9546 -0.0000 0.2979
vn -0.9546 -0.0000 -0.2979
vn 0.4481 -0.0000 0.8940
vn -0.9298 -0.0000 0.3680
vn -0.3308 -0.0000 -0.9437
vn 0.9219 -0.0000 -0.3874
vn -0.9219 -0.0000 0.3874
vn 0.3020 -0.0000 -0.9533
vn -0.3020 -0.0000 0.9533
vn 0.3826 -0.0000 -0.9239
vn 0.9238 -0.0000 0.3828
vn -0.9239 -0.0000 -0.3826
vn 0.1010 0.9646 -0.2437
vn -0.1009 0.9646 -0.2437
vn -0.1010 0.9646 0.2437
vn 0.1009 -0.9646 -0.2437
vn -0.1010 -0.9646 -0.2437
vn 0.1010 -0.9646 0.2437
vn -0.1009 -0.9646 0.2437
s 0
usemtl LightRock.001
f 2//1 4//1 5//1
f 7//1 8//1 3//1
f 10//2 12//2 14//2
f 15//3 17//3 18//3
f 19//3 4//3 8//3
f 4//4 21//4 5//4
f 6//5 23//5 24//5
f 25//5 26//5 22//5
f 27//6 29//6 32//6
f 35//6 9//6 31//6
f 11//7 10//7 39//7
f 40//7 32//7 37//7
f 42//8 12//8 11//8
f 44//8 43//8 45//8
f 46//9 44//9 49//9
f 50//9 48//9 13//9
f 52//10 13//10 48//10
f 14//10 53//10 54//10
f 4//11 55//11 20//11
f 26//12 21//12 56//12
f 58//1 62//1 63//1
f 65//1 60//1 21//1
f 26//13 67//13 32//13
f 37//14 67//14 68//14
f 37//15 69//15 44//15
f 44//16 70//16 48//16
f 48//17 55//17 17//17
f 71//3 58//3 75//3
f 74//3 20//3 55//3
f 21//5 77//5 78//5
f 79//5 80//5 76//5
f 58//2 82//2 59//2
f 83//6 56//6 87//6
f 90//6 91//6 88//6
f 68//7 94//7 95//7
f 96//7 67//7 91//7
f 97//8 100//8 68//8
f 98//8 104//8 105//8
f 105//9 70//9 109//9
f 110//9 70//9 69//9
f 113//10 55//10 116//10
f 70//10 107//10 112//10
f 73//2 81//2 58//2
f 59//2 120//2 80//2
f 81//1 122//1 82//1
f 80//2 123//2 91//2
f 91//2 124//2 93//2
f 93//2 125//2 105//2
f 105//2 126//2 107//2
f 107//2 119//2 73//2
f 119//3 121//3 81//3
f 82//5 128//5 120//5
f 121//2 130//2 122//2
f 120//6 131//6 123//6
f 123//7 132//7 124//7
f 124//8 133//8 125//8
f 125//9 134//9 126//9
f 126//10 127//10 119//10
f 121//2 135//2 129//2
f 122//2 136//2 128//2
f 130//1 137//1 138//1
f 128//2 139//2 131//2
f 131//2 140//2 132//2
f 132//2 141//2 133//2
f 134//2 141//2 142//2
f 134//2 135//2 127//2
f 135//3 137//3 129//3
f 130//5 144//5 136//5
f 137//18 146//18 138//18
f 136//6 147//6 139//6
f 139//7 148//7 140//7
f 140//8 149//8 141//8
f 141//9 150//9 142//9
f 142//10 143//10 135//10
f 143//18 145//18 137//18
f 138//18 152//18 144//18
f 145//1 154//1 146//1
f 147//18 152//18 155//18
f 148//18 155//18 156//18
f 149//18 156//18 157//18
f 150//18 157//18 158//18
f 150//18 151//18 143//18
f 151//3 160//3 145//3
f 152//5 161//5 162//5
f 163//1 154//1 164//1
f 165//1 153//1 145//1
f 154//19 167//19 168//19
f 152//6 170//6 155//6
f 156//7 171//7 172//7
f 156//8 174//8 157//8
f 157//9 176//9 158//9
f 158//10 178//10 151//10
f 165//3 160//3 179//3
f 180//3 159//3 151//3
f 159//20 183//20 160//20
f 184//5 162//5 185//5
f 163//5 161//5 146//5
f 161//21 188//21 162//21
f 163//1 166//1 165//1
f 154//22 189//22 164//22
f 153//23 190//23 167//23
f 155//6 192//6 191//6
f 184//6 169//6 152//6
f 169//24 195//24 170//24
f 196//7 172//7 197//7
f 191//7 171//7 155//7
f 172//25 199//25 200//25
f 201//8 174//8 202//8
f 196//8 173//8 156//8
f 173//26 205//26 174//26
f 206//9 176//9 207//9
f 201//9 175//9 157//9
f 176//27 209//27 210//27
f 180//10 178//10 211//10
f 206//10 177//10 158//10
f 177//28 214//28 178//28
f 165//3 181//3 180//3
f 160//29 215//29 179//29
f 159//30 216//30 182//30
f 184//5 186//5 163//5
f 162//31 217//31 185//31
f 161//32 218//32 187//32
f 164//33 190//33 166//33
f 184//6 192//6 193//6
f 170//34 221//34 192//34
f 169//35 222//35 194//35
f 191//7 197//7 198//7
f 172//36 223//36 197//36
f 171//37 224//37 199//37
f 201//8 203//8 196//8
f 174//38 225//38 202//38
f 173//39 226//39 204//39
f 206//9 208//9 201//9
f 176//40 227//40 207//40
f 175//41 228//41 209//41
f 180//10 212//10 206//10
f 178//42 229//42 211//42
f 177//43 230//43 213//43
f 179//44 216//44 181//44
f 185//45 218//45 186//45
f 193//47 221//47 222//47
f 197//48 224//48 198//48
f 203//49 225//49 226//49
f 207//50 228//50 208//50
f 212//51 229//51 230//51
f 6//1 1//1 2//1
f 2//1 3//1 4//1
f 5//1 6//1 2//1
f 7//1 1//1 6//1
f 8//1 4//1 3//1
f 7//1 6//1 8//1
f 14//2 8//2 6//2
f 6//2 9//2 10//2
f 10//2 11//2 12//2
f 12//2 13//2 14//2
f 14//2 6//2 10//2
f 15//3 16//3 14//3
f 17//3 4//3 18//3
f 15//3 14//3 17//3
f 14//3 16//3 19//3
f 19//3 18//3 4//3
f 8//3 14//3 19//3
f 4//4 20//4 21//4
f 24//5 22//5 9//5
f 6//5 5//5 23//5
f 24//5 9//5 6//5
f 25//5 23//5 5//5
f 26//5 9//5 22//5
f 25//5 5//5 26//5
f 27//6 28//6 29//6
f 30//6 31//6 26//6
f 29//6 30//6 26//6
f 32//6 10//6 33//6
f 32//6 33//6 27//6
f 29//6 26//6 32//6
f 28//6 27//6 34//6
f 35//6 33//6 10//6
f 31//6 28//6 34//6
f 35//6 10//6 9//6
f 31//6 34//6 35//6
f 9//6 26//6 31//6
f 36//7 37//7 11//7
f 10//7 38//7 39//7
f 39//7 36//7 11//7
f 38//7 10//7 32//7
f 37//7 36//7 40//7
f 40//7 38//7 32//7
f 37//8 41//8 42//8
f 42//8 43//8 12//8
f 11//8 37//8 42//8
f 45//8 41//8 37//8
f 44//8 12//8 43//8
f 45//8 37//8 44//8
f 46//9 47//9 12//9
f 44//9 48//9 49//9
f 46//9 12//9 44//9
f 12//9 47//9 50//9
f 50//9 49//9 48//9
f 13//9 12//9 50//9
f 17//10 51//10 52//10
f 52//10 53//10 13//10
f 48//10 17//10 52//10
f 54//10 51//10 17//10
f 14//10 13//10 53//10
f 54//10 17//10 14//10
f 4//11 17//11 55//11
f 26//12 5//12 21//12
f 63//1 57//1 20//1
f 58//1 59//1 60//1
f 58//1 60//1 61//1
f 63//1 20//1 58//1
f 58//1 61//1 62//1
f 20//1 57//1 64//1
f 65//1 63//1 62//1
f 21//1 20//1 64//1
f 65//1 62//1 66//1
f 21//1 64//1 65//1
f 60//1 59//1 21//1
f 65//111 66//111 60//111
f 26//13 56//13 67//13
f 37//14 32//14 67//14
f 37//15 68//15 69//15
f 44//16 69//16 70//16
f 48//17 70//17 55//17
f 71//3 72//3 55//3
f 55//3 73//3 58//3
f 58//3 74//3 75//3
f 71//3 55//3 58//3
f 55//3 72//3 74//3
f 74//3 58//3 20//3
f 78//5 76//5 56//5
f 21//5 59//5 77//5
f 78//5 56//5 21//5
f 79//5 77//5 59//5
f 80//5 56//5 76//5
f 79//5 59//5 80//5
f 58//2 81//2 82//2
f 84//6 85//6 67//6
f 56//6 80//6 86//6
f 87//6 88//6 89//6
f 56//6 86//6 87//6
f 84//6 67//6 56//6
f 87//6 89//6 83//6
f 83//6 84//6 56//6
f 90//6 86//6 80//6
f 91//6 67//6 85//6
f 85//112 89//112 88//112
f 90//6 80//6 91//6
f 91//6 85//6 88//6
f 95//7 92//7 93//7
f 68//7 67//7 94//7
f 95//7 93//7 68//7
f 93//7 92//7 96//7
f 96//7 94//7 67//7
f 91//7 93//7 96//7
f 97//8 98//8 99//8
f 97//8 99//8 100//8
f 93//8 103//8 97//8
f 102//8 69//8 68//8
f 101//8 102//8 68//8
f 68//8 93//8 97//8
f 100//8 101//8 68//8
f 104//8 103//8 93//8
f 105//8 69//8 102//8
f 102//8 99//8 98//8
f 104//8 93//8 105//8
f 105//8 102//8 98//8
f 106//9 69//9 105//9
f 105//9 107//9 70//9
f 70//9 108//9 109//9
f 109//9 106//9 105//9
f 69//9 106//9 110//9
f 110//9 108//9 70//9
f 116//10 111//10 112//10
f 113//10 114//10 73//10
f 116//10 112//10 113//10
f 55//10 115//10 116//10
f 113//10 73//10 55//10
f 112//113 111//113 117//113
f 117//10 115//10 55//10
f 107//10 73//10 114//10
f 107//10 114//10 118//10
f 117//10 55//10 70//10
f 107//10 118//10 112//10
f 112//10 117//10 70//10
f 73//2 119//2 81//2
f 59//2 82//2 120//2
f 81//1 121//1 122//1
f 80//2 120//2 123//2
f 91//2 123//2 124//2
f 93//2 124//2 125//2
f 105//2 125//2 126//2
f 107//2 126//2 119//2
f 119//3 127//3 121//3
f 82//5 122//5 128//5
f 121//2 129//2 130//2
f 120//6 128//6 131//6
f 123//7 131//7 132//7
f 124//8 132//8 133//8
f 125//9 133//9 134//9
f 126//10 134//10 127//10
f 121//2 127//2 135//2
f 122//2 130//2 136//2
f 130//1 129//1 137//1
f 128//2 136//2 139//2
f 131//2 139//2 140//2
f 132//2 140//2 141//2
f 134//2 133//2 141//2
f 134//2 142//2 135//2
f 135//3 143//3 137//3
f 130//5 138//5 144//5
f 137//18 145//18 146//18
f 136//6 144//6 147//6
f 139//7 147//7 148//7
f 140//8 148//8 149//8
f 141//9 149//9 150//9
f 142//10 150//10 143//10
f 143//18 151//18 145//18
f 138//18 146//18 152//18
f 145//1 153//1 154//1
f 147//18 144//18 152//18
f 148//18 147//18 155//18
f 149//18 148//18 156//18
f 150//18 149//18 157//18
f 150//18 158//18 151//18
f 151//3 159//3 160//3
f 152//5 146//5 161//5
f 163//1 146//1 154//1
f 165//1 166//1 153//1
f 154//114 153//114 167//114
f 152//6 169//6 170//6
f 156//7 155//7 171//7
f 156//8 173//8 174//8
f 157//9 175//9 176//9
f 158//10 177//10 178//10
f 165//3 145//3 160//3
f 180//3 181//3 159//3
f 159//115 182//115 183//115
f 184//5 152//5 162//5
f 163//5 186//5 161//5
f 161//21 187//21 188//21
f 163//1 164//1 166//1
f 154//22 168//22 189//22
f 153//23 166//23 190//23
f 155//6 170//6 192//6
f 184//6 193//6 169//6
f 169//24 194//24 195//24
f 196//7 156//7 172//7
f 191//7 198//7 171//7
f 172//25 171//25 199//25
f 201//8 157//8 174//8
f 196//8 203//8 173//8
f 173//116 204//116 205//116
f 206//9 158//9 176//9
f 201//9 208//9 175//9
f 176//27 175//27 209//27
f 180//10 151//10 178//10
f 206//10 212//10 177//10
f 177//28 213//28 214//28
f 165//3 179//3 181//3
f 160//29 183//29 215//29
f 159//30 181//30 216//30
f 184//5 185//5 186//5
f 162//31 188//31 217//31
f 161//32 186//32 218//32
f 164//117 189//117 190//117
f 184//6 191//6 192//6
f 170//34 195//34 221//34
f 169//35 193//35 222//35
f 191//7 196//7 197//7
f 172//36 200//36 223//36
f 171//37 198//37 224//37
f 201//8 202//8 203//8
f 174//38 205//38 225//38
f 173//39 203//39 226//39
f 206//9 207//9 208//9
f 176//40 210//40 227//40
f 175//41 208//41 228//41
f 180//10 211//10 212//10
f 178//42 214//42 229//42
f 177//43 212//43 230//43
f 179//118 215//118 216//118
f 185//45 217//45 218//45
f 193//47 192//47 221//47
f 197//119 223//119 224//119
f 203//120 202//120 225//120
f 207//50 227//50 228//50
f 212//51 211//51 229//51
usemtl Celing.001
f 165//2 220//2 163//2
f 180//2 219//2 165//2
f 184//2 220//2 232//2
f 219//46 234//46 220//46
f 184//2 235//2 191//2
f 191//2 236//2 196//2
f 196//2 237//2 201//2
f 201//2 238//2 206//2
f 180//2 238//2 231//2
f 231//52 233//52 219//52
f 220//53 240//53 232//53
f 234//54 233//54 241//54
f 232//55 242//55 235//55
f 236//56 242//56 243//56
f 237//57 243//57 244//57
f 238//58 244//58 245//58
f 238//59 239//59 231//59
f 233//60 239//60 241//60
f 240//61 234//61 241//61
f 242//62 240//62 241//62
f 243//63 242//63 241//63
f 244//64 243//64 241//64
f 245//65 244//65 241//65
f 239//66 245//66 241//66
f 165//2 219//2 220//2
f 180//2 231//2 219//2
f 184//2 163//2 220//2
f 219//46 233//46 234//46
f 184//2 232//2 235//2
f 191//2 235//2 236//2
f 196//2 236//2 237//2
f 201//2 237//2 238//2
f 180//2 206//2 238//2
f 231//52 239//52 233//52
f 220//53 234//53 240//53
f 232//55 240//55 242//55
f 236//56 235//56 242//56
f 237//57 236//57 243//57
f 238//58 237//58 244//58
f 238//59 245//59 239//59
usemtl Black.001
f 168//1 190//1 189//1
f 182//3 215//3 183//3
f 187//5 217//5 188//5
f 194//6 221//6 195//6
f 200//7 224//7 223//7
f 205//8 226//8 225//8
f 209//9 227//9 210//9
f 213//10 229//10 214//10
f 168//1 167//1 190//1
f 182//3 216//3 215//3
f 187//5 218//5 217//5
f 194//6 222//6 221//6
f 200//7 199//7 224//7
f 205//8 204//8 226//8
f 209//9 228//9 227//9
f 213//10 230//10 229//10
usemtl DarkRock.001
f 246//67 112//67 118//67
f 248//18 118//18 114//18
f 248//68 247//68 246//68
f 112//2 249//2 113//2
f 249//69 114//69 113//69
f 250//70 62//70 61//70
f 60//18 250//18 61//18
f 252//71 251//71 250//71
f 251//2 66//2 62//2
f 253//72 60//72 66//72
f 254//72 97//72 103//72
f 104//18 254//18 103//18
f 256//73 255//73 254//73
f 255//2 98//2 97//2
f 257//70 104//70 98//70
f 258//74 87//74 86//74
f 90//18 258//18 86//18
f 260//75 259//75 258//75
f 259//2 88//2 87//2
f 261//76 90//76 88//76
f 262//74 84//74 83//74
f 89//18 262//18 83//18
f 264//75 263//75 262//75
f 263//2 85//2 84//2
f 265//76 89//76 85//76
f 266//77 94//77 96//77
f 92//18 266//18 96//18
f 266//78 269//78 267//78
f 267//2 95//2 94//2
f 269//79 92//79 95//79
f 270//80 110//80 106//80
f 109//18 270//18 106//18
f 272//81 271//81 270//81
f 271//2 108//2 110//2
f 273//82 109//82 108//82
f 274//72 101//72 100//72
f 99//18 274//18 100//18
f 276//73 275//73 274//73
f 275//2 102//2 101//2
f 277//70 99//70 102//70
f 278//70 57//70 63//70
f 65//18 278//18 63//18
f 280//71 279//71 278//71
f 279//2 64//2 57//2
f 281//72 65//72 64//72
f 282//82 78//82 77//82
f 79//18 282//18 77//18
f 284//83 283//83 282//83
f 283//2 76//2 78//2
f 285//80 79//80 76//80
f 286//84 72//84 71//84
f 75//18 286//18 71//18
f 288//85 287//85 286//85
f 287//2 74//2 72//2
f 289//86 75//86 74//86
f 290//87 117//87 111//87
f 292//18 111//18 116//18
f 292//68 291//68 290//68
f 117//2 293//2 115//2
f 293//88 116//88 115//88
f 294//89 31//89 30//89
f 29//18 294//18 30//18
f 296//75 295//75 294//75
f 295//2 28//2 31//2
f 297//90 29//90 28//90
f 52//91 299//91 53//91
f 51//18 298//18 52//18
f 300//68 299//68 298//68
f 299//2 54//2 53//2
f 301//92 51//92 54//92
f 302//93 16//93 15//93
f 304//18 15//18 18//18
f 304//94 303//94 302//94
f 16//2 305//2 19//2
f 305//95 18//95 19//95
f 306//96 24//96 23//96
f 25//18 306//18 23//18
f 308//97 307//97 306//97
f 307//2 22//2 24//2
f 309//98 25//98 22//98
f 310//99 7//99 3//99
f 312//18 3//18 2//18
f 312//100 311//100 310//100
f 7//2 313//2 1//2
f 313//101 2//101 1//101
f 314//102 42//102 41//102
f 316//18 41//18 45//18
f 314//73 317//73 315//73
f 42//2 317//2 43//2
f 317//103 45//103 43//103
f 46//104 319//104 47//104
f 320//18 46//18 49//18
f 320//105 319//105 318//105
f 47//2 321//2 50//2
f 321//106 49//106 50//106
f 322//107 39//107 38//107
f 324//18 38//18 40//18
f 324//78 323//78 322//78
f 39//2 325//2 36//2
f 325//108 40//108 36//108
f 326//109 35//109 34//109
f 328//18 34//18 27//18
f 328//75 327//75 326//75
f 35//2 329//2 33//2
f 329//110 27//110 33//110
f 246//67 247//67 112//67
f 248//18 246//18 118//18
f 248//68 249//68 247//68
f 112//2 247//2 249//2
f 249//69 248//69 114//69
f 250//70 251//70 62//70
f 60//18 252//18 250//18
f 252//71 253//71 251//71
f 251//2 253//2 66//2
f 253//72 252//72 60//72
f 254//72 255//72 97//72
f 104//18 256//18 254//18
f 256//73 257//73 255//73
f 255//2 257//2 98//2
f 257//70 256//70 104//70
f 258//74 259//74 87//74
f 90//18 260//18 258//18
f 260//75 261//75 259//75
f 259//2 261//2 88//2
f 261//76 260//76 90//76
f 262//74 263//74 84//74
f 89//18 264//18 262//18
f 264//75 265//75 263//75
f 263//2 265//2 85//2
f 265//76 264//76 89//76
f 266//77 267//77 94//77
f 92//18 268//18 266//18
f 266//78 268//78 269//78
f 267//2 269//2 95//2
f 269//79 268//79 92//79
f 270//80 271//80 110//80
f 109//18 272//18 270//18
f 272//81 273//81 271//81
f 271//2 273//2 108//2
f 273//82 272//82 109//82
f 274//72 275//72 101//72
f 99//18 276//18 274//18
f 276//73 277//73 275//73
f 275//2 277//2 102//2
f 277//70 276//70 99//70
f 278//70 279//70 57//70
f 65//18 280//18 278//18
f 280//71 281//71 279//71
f 279//2 281//2 64//2
f 281//72 280//72 65//72
f 282//82 283//82 78//82
f 79//18 284//18 282//18
f 284//83 285//83 283//83
f 283//2 285//2 76//2
f 285//80 284//80 79//80
f 286//84 287//84 72//84
f 75//18 288//18 286//18
f 288//85 289//85 287//85
f 287//2 289//2 74//2
f 289//86 288//86 75//86
f 290//87 291//87 117//87
f 292//18 290//18 111//18
f 292//68 293//68 291//68
f 117//2 291//2 293//2
f 293//88 292//88 116//88
f 294//89 295//89 31//89
f 29//18 296//18 294//18
f 296//75 297//75 295//75
f 295//2 297//2 28//2
f 297//90 296//90 29//90
f 52//91 298//91 299//91
f 51//18 300//18 298//18
f 300//68 301//68 299//68
f 299//2 301//2 54//2
f 301//92 300//92 51//92
f 302//93 303//93 16//93
f 304//18 302//18 15//18
f 304//94 305//94 303//94
f 16//2 303//2 305//2
f 305//95 304//95 18//95
f 306//96 307//96 24//96
f 25//18 308//18 306//18
f 308//97 309//97 307//97
f 307//2 309//2 22//2
f 309//98 308//98 25//98
f 310//99 311//99 7//99
f 312//18 310//18 3//18
f 312//100 313//100 311//100
f 7//2 311//2 313//2
f 313//101 312//101 2//101
f 314//102 315//102 42//102
f 316//18 314//18 41//18
f 314//73 316//73 317//73
f 42//2 315//2 317//2
f 317//103 316//103 45//103
f 46//104 318//104 319//104
f 320//18 318//18 46//18
f 320//105 321//105 319//105
f 47//2 319//2 321//2
f 321//106 320//106 49//106
f 322//107 323//107 39//107
f 324//18 322//18 38//18
f 324//78 325//78 323//78
f 39//2 323//2 325//2
f 325//108 324//108 40//108
f 326//109 327//109 35//109
f 328//18 326//18 34//18
f 328//75 329//75 327//75
f 35//2 327//2 329//2
f 329//110 328//110 27//110
