{
	"asset":{
		"generator":"Khronos glTF Blender I/O v4.4.55",
		"version":"2.0"
	},
	"scene":0,
	"scenes":[
		{
			"name":"Scene",
			"nodes":[
				0
			]
		}
	],
	"nodes":[
		{
			"mesh":0,
			"name":"Temple_SecondAge_Level3"
		}
	],
	"materials":[
		{
			"doubleSided":true,
			"name":"Walls",
			"pbrMetallicRoughness":{
				"baseColorFactor":[
					0.4352165758609772,
					0.4385380148887634,
					0.3826240599155426,
					1
				],
				"metallicFactor":0,
				"roughnessFactor":0.5
			}
		},
		{
			"doubleSided":true,
			"name":"Main",
			"pbrMetallicRoughness":{
				"baseColorFactor":[
					0.4385380148887634,
					0.09992149472236633,
					0.05885644257068634,
					1
				],
				"metallicFactor":0,
				"roughnessFactor":0.5
			}
		},
		{
			"doubleSided":true,
			"name":"Stone",
			"pbrMetallicRoughness":{
				"baseColorFactor":[
					0.24436430633068085,
					0.24618881940841675,
					0.21545054018497467,
					1
				],
				"metallicFactor":0,
				"roughnessFactor":0.5
			}
		}
	],
	"meshes":[
		{
			"name":"Cube.223",
			"primitives":[
				{
					"attributes":{
						"POSITION":0,
						"NORMAL":1
					},
					"indices":2,
					"material":0
				},
				{
					"attributes":{
						"POSITION":3,
						"NORMAL":4
					},
					"indices":5,
					"material":1
				},
				{
					"attributes":{
						"POSITION":6,
						"NORMAL":7
					},
					"indices":8,
					"material":2
				}
			]
		}
	],
	"accessors":[
		{
			"bufferView":0,
			"componentType":5126,
			"count":3852,
			"max":[
				1.4683786630630493,
				3.4742932319641113,
				0.9763292670249939
			],
			"min":[
				-1.4683786630630493,
				-0.002407664433121681,
				-0.9763292670249939
			],
			"type":"VEC3"
		},
		{
			"bufferView":1,
			"componentType":5126,
			"count":3852,
			"type":"VEC3"
		},
		{
			"bufferView":2,
			"componentType":5123,
			"count":5790,
			"type":"SCALAR"
		},
		{
			"bufferView":3,
			"componentType":5126,
			"count":4368,
			"max":[
				1.4828991889953613,
				5.23283576965332,
				0.9863558411598206
			],
			"min":[
				-1.4828991889953613,
				1.987607717514038,
				-0.9863558411598206
			],
			"type":"VEC3"
		},
		{
			"bufferView":4,
			"componentType":5126,
			"count":4368,
			"type":"VEC3"
		},
		{
			"bufferView":5,
			"componentType":5123,
			"count":6306,
			"type":"SCALAR"
		},
		{
			"bufferView":6,
			"componentType":5126,
			"count":2692,
			"max":[
				1.8399289846420288,
				3.268080711364746,
				1.2455470561981201
			],
			"min":[
				-1.8399288654327393,
				-0.002167816972360015,
				-1.2455471754074097
			],
			"type":"VEC3"
		},
		{
			"bufferView":7,
			"componentType":5126,
			"count":2692,
			"type":"VEC3"
		},
		{
			"bufferView":8,
			"componentType":5123,
			"count":4140,
			"type":"SCALAR"
		}
	],
	"bufferViews":[
		{
			"buffer":0,
			"byteLength":46224,
			"byteOffset":0,
			"target":34962
		},
		{
			"buffer":0,
			"byteLength":46224,
			"byteOffset":46224,
			"target":34962
		},
		{
			"buffer":0,
			"byteLength":11580,
			"byteOffset":92448,
			"target":34963
		},
		{
			"buffer":0,
			"byteLength":52416,
			"byteOffset":104028,
			"target":34962
		},
		{
			"buffer":0,
			"byteLength":52416,
			"byteOffset":156444,
			"target":34962
		},
		{
			"buffer":0,
			"byteLength":12612,
			"byteOffset":208860,
			"target":34963
		},
		{
			"buffer":0,
			"byteLength":32304,
			"byteOffset":221472,
			"target":34962
		},
		{
			"buffer":0,
			"byteLength":32304,
			"byteOffset":253776,
			"target":34962
		},
		{
			"buffer":0,
			"byteLength":8280,
			"byteOffset":286080,
			"target":34963
		}
	],
	"buffers":[
		{
			"byteLength":294360,
			"uri":"Temple.bin"
		}
	]
}
