{
	"asset":{
		"generator":"Khronos glTF Blender I/O v4.4.55",
		"version":"2.0"
	},
	"extensionsUsed":[
		"KHR_materials_specular",
		"KHR_materials_ior"
	],
	"scene":0,
	"scenes":[
		{
			"name":"Scene",
			"nodes":[
				0
			]
		}
	],
	"nodes":[
		{
			"mesh":0,
			"name":"Spooky_Tower_Rocks_Base_Art",
			"rotation":[
				0.70710688829422,
				0,
				0,
				0.7071066498756409
			],
			"scale":[
				0.009999999776482582,
				0.010000000707805157,
				0.010000000707805157
			]
		}
	],
	"materials":[
		{
			"doubleSided":true,
			"extensions":{
				"KHR_materials_specular":{
					"specularColorFactor":[
						2.0,
						2.0,
						2.0
					]
				},
				"KHR_materials_ior":{
					"ior":1.4500000476837158
				}
			},
			"name":"Spooky_Rock_01_Mat",
			"normalTexture":{
				"index":0
			},
			"pbrMetallicRoughness":{
				"baseColorTexture":{
					"index":1
				},
				"metallicRoughnessTexture":{
					"index":2
				}
			}
		}
	],
	"meshes":[
		{
			"name":"Mesh.392",
			"primitives":[
				{
					"attributes":{
						"POSITION":0,
						"NORMAL":1,
						"TEXCOORD_0":2
					},
					"indices":3,
					"material":0
				}
			]
		}
	],
	"textures":[
		{
			"sampler":0,
			"source":0
		},
		{
			"sampler":0,
			"source":1
		},
		{
			"sampler":0,
			"source":2
		}
	],
	"images":[
		{
			"mimeType":"image/png",
			"name":"Spooky_Rock_Normal",
			"uri":"Spooky_Rock_Normal.png"
		},
		{
			"mimeType":"image/png",
			"name":"Spooky_Rock_Albedo",
			"uri":"Spooky_Rock_Albedo.png"
		},
		{
			"mimeType":"image/png",
			"name":"Spooky_Rock_Metallic",
			"uri":"Spooky_Rock_Metallic.png"
		}
	],
	"accessors":[
		{
			"bufferView":0,
			"componentType":5126,
			"count":1136,
			"max":[
				672.4664916992188,
				681.6605224609375,
				38.52375411987305
			],
			"min":[
				-670.66552734375,
				-649.1868896484375,
				-189.43321228027344
			],
			"type":"VEC3"
		},
		{
			"bufferView":1,
			"componentType":5126,
			"count":1136,
			"type":"VEC3"
		},
		{
			"bufferView":2,
			"componentType":5126,
			"count":1136,
			"type":"VEC2"
		},
		{
			"bufferView":3,
			"componentType":5123,
			"count":1980,
			"type":"SCALAR"
		}
	],
	"bufferViews":[
		{
			"buffer":0,
			"byteLength":13632,
			"byteOffset":0,
			"target":34962
		},
		{
			"buffer":0,
			"byteLength":13632,
			"byteOffset":13632,
			"target":34962
		},
		{
			"buffer":0,
			"byteLength":9088,
			"byteOffset":27264,
			"target":34962
		},
		{
			"buffer":0,
			"byteLength":3960,
			"byteOffset":36352,
			"target":34963
		}
	],
	"samplers":[
		{
			"magFilter":9729,
			"minFilter":9987
		}
	],
	"buffers":[
		{
			"byteLength":40312,
			"uri":"surroundings.bin"
		}
	]
}
